<?xml version="1.0" encoding="UTF-8" standalone="no"?>
<!-- Created with Serif DrawPlus 11, 0, 0, 18 (Mar 20, 15:09:53) (http://www.serif.com) -->
<svg version="1.1" xmlns="http://www.w3.org/2000/svg" xmlns:xlink="http://www.w3.org/1999/xlink" xmlns:inkscape="http://www.inkscape.org/namespaces/inkscape" width="137.28" height="44">
	<g id="Layer_1" inkscape:label="Layer 1" inkscape:groupmode="layer">
		<path id="dp_path001" fill="black" fill-rule="evenodd" d="M 67.34,24.092 L 63.384,24.092 C 61.8053,24.092 60.5213,25.376 60.5213,26.9547 L 60.5213,41.1307 C 60.5213,42.7893 61.7253,43.9933 63.384,43.9933 L 67.34,43.9933 C 68.9187,43.9933 70.2027,42.7093 70.2027,41.1307 L 70.2027,37.388 L 67.14,37.388 L 67.14,40.5493 C 67.14,40.896 66.8587,41.1787 66.5107,41.1787 L 64.3107,41.1787 C 63.964,41.1787 63.6827,40.896 63.6827,40.5493 L 63.6827,27.476 C 63.6827,27.1293 63.9653,26.8467 64.3107,26.8467 L 66.5107,26.8467 C 66.8573,26.8467 67.14,27.1293 67.14,27.476 L 67.14,30.8507 L 70.2027,30.8507 L 70.2027,26.956 C 70.2027,25.3773 68.9187,24.092 67.34,24.092 Z "/>
		<path id="dp_path002" fill="black" fill-rule="evenodd" d="M 80.3813,28.052 L 71.4053,28.052 L 71.4053,30.8507 L 74.3613,30.8507 L 74.3613,43.9987 L 77.424,43.9987 L 77.424,30.8507 L 80.3813,30.8507 Z "/>
		<path id="dp_path003" fill="black" fill-rule="evenodd" d="M 30.9107,37.012 L 30.612,37.012 L 30.6107,28.0533 L 27.5493,28.0533 L 27.5493,43.9987 L 30.2427,43.9987 L 33.6,35.4533 L 33.8987,35.4533 L 33.8987,43.9987 L 36.9627,43.9987 L 36.9627,28.0533 L 34.232,28.0533 Z "/>
		<path id="dp_path004" fill="black" fill-rule="evenodd" d="M 17.6933,24.0893 L 13.9533,43.9947 L 17.1947,43.9947 L 19.756,27.3293 L 20.0547,27.3293 L 22.7307,43.9947 L 25.98,43.9947 L 22.2707,24.0893 Z "/>
		<path id="dp_path005" fill="black" fill-rule="evenodd" d="M 83.4653,28.052 L 80.1293,43.9987 L 83.2093,43.9987 L 83.5893,41.9587 L 87.688,41.9587 L 88.064,43.9987 L 91.1533,43.9987 L 87.8347,28.052 Z M 84.0827,39.3133 L 85.5067,30.852 L 85.7947,30.852 L 87.2013,39.3133 Z "/>
		<path id="dp_path006" fill="black" fill-rule="evenodd" d="M 48.6827,28.052 L 45.3467,43.9987 L 48.4253,43.9987 L 48.8053,41.9587 L 52.9053,41.9587 L 53.2813,43.9987 L 56.3707,43.9987 L 53.052,28.052 Z M 49.2987,39.3133 L 50.7227,30.852 L 51.0107,30.852 L 52.4173,39.3133 Z "/>
		<path id="dp_path007" fill="black" fill-rule="evenodd" d="M 46.1907,28.052 L 39.252,28.052 L 39.252,43.9987 L 42.3147,43.9987 L 42.3147,30.852 L 46.1907,30.852 Z "/>
		<path id="dp_path008" fill="black" fill-rule="evenodd" d="M 109.761,28.052 L 106.376,28.052 C 104.797,28.052 103.515,29.336 103.515,30.9147 L 103.515,41.136 C 103.515,42.7147 104.797,43.9973 106.376,43.9973 L 109.761,43.9973 C 111.339,43.9973 112.623,42.7147 112.623,41.136 L 112.623,30.9147 C 112.623,29.336 111.339,28.052 109.761,28.052 Z M 109.561,40.5547 C 109.561,40.9013 109.279,41.184 108.933,41.184 L 107.205,41.184 C 106.859,41.184 106.576,40.9013 106.576,40.5547 L 106.576,31.4947 C 106.576,31.148 106.859,30.8653 107.205,30.8653 L 108.933,30.8653 C 109.28,30.8653 109.561,31.1533 109.561,31.5053 Z "/>
		<path id="dp_path009" fill="black" fill-rule="evenodd" d="M 0,0 L 0,44 L 8.47067,44 L 8.47067,8.02933 L 129.031,8.02933 L 129.031,44 L 137.5,44 L 137.5,0 Z "/>
		<path id="dp_path010" fill="black" fill-rule="evenodd" d="M 124.551,28.052 L 121.249,28.052 L 118.481,34.82 L 117.951,34.82 L 117.951,28.052 L 114.913,28.052 L 114.913,43.9987 L 117.951,43.9987 L 117.951,37.4667 L 118.603,37.4667 L 121.415,43.9987 L 124.721,43.9987 L 121.175,36.0027 Z "/>
		<path id="dp_path011" fill="black" fill-rule="evenodd" d="M 99.4533,36.2067 L 99.4533,35.9093 L 99.4507,35.9093 C 100.635,35.6627 101.525,34.608 101.525,33.348 L 101.525,33.3467 L 101.525,30.904 C 101.525,29.3307 100.241,28.052 98.664,28.052 L 92.72,28.052 L 92.72,43.9973 L 98.8053,43.9973 C 100.384,43.9973 101.668,42.7147 101.668,41.136 L 101.668,38.8827 L 101.668,38.8813 C 101.669,37.5547 100.713,36.4493 99.4533,36.2067 Z M 95.7827,30.8573 L 97.8347,30.8573 C 98.1813,30.8573 98.4627,31.1387 98.4627,31.4853 L 98.4627,34.1947 C 98.4627,34.5413 98.1813,34.824 97.8347,34.824 L 95.7827,34.824 Z M 98.6053,40.5547 C 98.6053,40.9013 98.324,41.184 97.9773,41.184 L 95.7813,41.184 L 95.7813,37.4693 L 97.9773,37.4693 C 98.324,37.4693 98.6053,37.752 98.6053,38.0987 Z "/>
	</g>
</svg>