<?xml version="1.0" encoding="UTF-8" standalone="no"?>
<!-- Created with Serif DrawPlus 11, 0, 0, 18 (Mar 20, 15:09:53) (http://www.serif.com) -->
<svg version="1.1" xmlns="http://www.w3.org/2000/svg" xmlns:xlink="http://www.w3.org/1999/xlink" xmlns:inkscape="http://www.inkscape.org/namespaces/inkscape" width="480" height="288">
	<g id="Layer_1" inkscape:label="Layer 1" inkscape:groupmode="layer">
		<path id="path3003-5-6-6-7-8-9-3-7" fill="white" fill-rule="evenodd" stroke="none" stroke-width="2.57867" d="M 239.768,34.0973 C 191.94,34.0973 153.152,58.2667 153.152,88.064 C 153.152,116.907 191.94,140.297 239.768,140.297 C 287.596,140.297 326.384,116.907 326.384,88.064 C 326.384,58.2667 287.596,34.0973 239.768,34.0973 Z M 239.768,42.2707 C 280.857,42.2707 314.177,62.368 314.177,87.1467 C 314.177,111.927 280.857,132.023 239.768,132.023 C 198.679,132.023 165.353,111.927 165.353,87.1467 C 165.353,62.368 198.679,42.2707 239.768,42.2707 Z M 239.959,55.6 C 236.776,55.6 233.653,55.728 230.607,55.972 L 227.128,56.304 C 200.955,59.2347 181.385,70.944 181.385,84.932 C 181.385,95.2853 192.109,104.381 208.295,109.6 C 207.531,114.095 206.804,118.097 205.968,121.237 C 221.111,112.769 222.925,87.7133 227.777,66.436 C 233.383,65.404 239.435,64.836 245.749,64.8293 C 236.209,81.596 234.599,108.493 231.207,121.237 C 246.669,112.591 248.236,86.6453 253.328,65.092 C 258.447,65.456 263.327,66.1933 267.86,67.2413 C 259.448,84.0747 257.836,109.088 254.601,121.237 C 269.024,113.172 271.355,90.056 275.736,69.492 C 288.032,73.7573 296.515,80.5853 298.108,88.4307 C 298.381,87.2813 298.531,86.1173 298.531,84.932 C 298.531,75.8627 290.307,67.7533 277.392,62.372 L 272.055,60.3933 C 267.057,58.7507 261.527,57.476 255.624,56.6573 L 252.416,56.264 C 248.4,55.828 244.231,55.5987 239.957,55.5987 Z M 111.751,158.992 L 111.751,167.391 L 129.42,167.391 L 129.42,201.249 L 139.527,201.249 L 139.527,167.391 L 157.347,167.391 L 157.347,158.992 Z M 177.268,158.992 C 174.283,158.992 171.827,159.235 169.88,159.723 C 167.94,160.208 166.368,161.008 165.163,162.144 C 163.953,163.28 163.071,164.804 162.513,166.711 C 161.956,168.619 161.683,171.045 161.683,173.977 L 161.683,186.813 C 161.683,189.411 161.965,191.609 162.533,193.415 C 163.103,195.221 164.004,196.704 165.243,197.871 C 166.489,199.028 168.095,199.892 170.061,200.429 C 171.045,200.703 172.137,200.907 173.339,201.044 C 174.54,201.181 175.851,201.251 177.267,201.251 L 195.823,201.251 C 198.775,201.251 201.244,200.987 203.209,200.46 C 205.188,199.941 206.745,199.108 207.903,197.983 C 209.051,196.867 209.869,195.408 210.365,193.612 C 210.861,191.816 211.105,189.553 211.105,186.813 L 211.105,173.979 C 211.105,170.081 210.571,167.045 209.504,164.864 C 208.431,162.683 206.796,161.164 204.605,160.292 C 202.4,159.429 199.477,158.992 195.823,158.992 Z M 217.264,158.992 L 217.264,201.249 L 227.371,201.249 L 227.371,167.391 L 253.489,167.391 L 253.489,201.249 L 263.596,201.249 L 263.596,158.992 L 253.429,158.992 L 227.371,158.992 Z M 289.519,158.992 L 267.125,201.249 L 278.924,201.249 L 284.403,190.595 L 309.419,190.595 L 314.843,201.249 L 326.716,201.249 L 304.495,158.992 Z M 344.311,158.992 C 340.923,158.992 338.163,159.419 336.043,160.271 C 333.912,161.123 332.36,162.419 331.364,164.173 C 330.368,165.929 329.873,168.181 329.873,170.921 L 339.989,170.921 C 340.028,170.565 340.056,170.239 340.125,169.935 C 340.316,169.021 340.66,168.336 341.153,167.88 C 341.824,167.281 343.153,166.979 345.152,166.979 L 362.147,166.979 C 365.395,166.979 367.02,168.437 367.02,171.359 C 367.02,174.647 365.395,176.289 362.147,176.289 L 342.423,176.289 L 342.423,183.656 L 360.983,183.656 C 362.82,183.656 364.248,183.848 365.263,184.225 C 366.288,184.6 366.979,185.136 367.332,185.827 C 367.691,186.527 367.872,187.429 367.872,188.525 C 367.872,190.199 367.333,191.411 366.271,192.151 C 365.471,192.705 364.337,193.053 362.872,193.193 C 362.384,193.236 361.859,193.26 361.296,193.26 L 344.371,193.26 C 342.981,193.26 341.808,192.857 340.831,192.056 C 339.857,191.244 339.371,190.307 339.371,189.251 L 329.033,189.251 C 329.033,192.031 329.475,194.304 330.368,196.059 C 331.263,197.815 332.745,199.115 334.813,199.967 C 336.368,200.607 338.343,201.005 340.736,201.165 C 341.533,201.208 342.373,201.243 343.263,201.243 L 363.683,201.243 C 364.52,201.243 365.316,201.205 366.075,201.156 C 368.348,200.988 370.268,200.571 371.829,199.901 C 373.919,199.008 375.449,197.62 376.432,195.732 C 377.419,193.835 377.917,191.388 377.917,188.396 C 377.917,186.133 377.367,184.327 376.261,182.997 C 375.156,181.657 373.553,180.625 371.463,179.865 C 373.289,179.124 374.656,178.088 375.581,176.748 C 376.505,175.409 377.023,173.469 377.123,170.912 C 377.044,168.02 376.473,165.708 375.431,163.973 C 374.392,162.239 372.743,160.977 370.491,160.177 C 368.237,159.376 365.236,158.983 361.481,158.983 Z M 218.537,68.672 C 212.817,80.9653 210.423,97.0973 208.315,109.495 C 199.064,104.756 193.36,98.2747 193.36,91.1253 C 193.36,81.6187 203.439,73.292 218.537,68.672 Z M 296.836,166.913 L 297.315,166.913 L 305.345,182.609 L 288.487,182.609 Z M 179.885,167.392 L 192.917,167.392 C 195.016,167.392 196.64,167.595 197.777,168.011 C 198.901,168.417 199.72,169.156 200.239,170.232 C 200.744,171.296 201,172.869 201,174.94 L 201,185.725 C 201,187.684 200.791,189.168 200.365,190.163 C 199.937,191.167 199.175,191.856 198.069,192.252 C 196.964,192.648 195.308,192.851 193.093,192.851 L 179.715,192.851 C 177.613,192.851 176,192.648 174.885,192.231 C 173.771,191.825 172.987,191.116 172.519,190.101 C 172.051,189.087 171.808,187.653 171.789,185.785 L 171.789,175 C 171.831,172.929 172.103,171.356 172.569,170.292 C 173.037,169.215 173.841,168.467 174.976,168.04 C 176.113,167.604 177.745,167.391 179.885,167.391 Z "/>
	</g>
</svg>